# xmcd
#
# Track frame offsets:
#	150
#	15900
#	29699
#	45254
#	55960
#	68860
#	81085
#	98395
#	118366
#
# Disc length: 1856 seconds
#
# Revision: 3
# Processed by: cddbd v1.5.2PL0 Copyright (c) Steve Scherf et al.
# Submitted via: audiograbber 1.83.01
#
DISCID=69073e09
DTITLE=On A Shoestring - Rebirth
DYEAR=2006
DGENRE=Rock
TTITLE0=In Your Hands
TTITLE1=Stand Your Ground
TTITLE2=9 to 5
TTITLE3=Round and Round
TTITLE4=Barbarian
TTITLE5=Push Comes to Shove
TTITLE6=Can You Handle This?
TTITLE7=Just Play
TTITLE8=Once Again
EXTD=http://www.onashoestring.org.uk
EXTT0=
EXTT1=
EXTT2=
EXTT3=
EXTT4=
EXTT5=
EXTT6=
EXTT7=
EXTT8=
PLAYORDER=
